<?xml version='1.0' encoding='utf-8'?>
<svg xmlns="http://www.w3.org/2000/svg" viewBox="0 0 1000 700" width="1000" height="700" id="svg-root" style="font-family: -apple-system, &quot;Microsoft YaHei&quot;, sans-serif;"><linearGradient id="bg-grad" x1="0%" y1="0%" x2="100%" y2="100%"><stop offset="0%" stop-color="#0a0a1a" /><stop offset="100%" stop-color="#1a1a3e" /></linearGradient><rect width="1000" height="700" fill="url(#bg-grad)" /><text x="500" y="40" text-anchor="middle" fill="#e94560" font-size="22" font-weight="bold">MeshIdentity 架构图</text><text x="500" y="58" text-anchor="middle" fill="#888" font-size="12">Local Agent Multi-Terminal Identity &amp; Memory Sync</text><filter id="shadow" x="-5%" y="-5%" width="115%" height="115%"><feDropShadow dx="2" dy="3" stdDeviation="4" flood-color="rgba(0,0,0,0.4)" /></filter><marker id="arrow" viewBox="0 0 10 10" refX="8" refY="5" markerWidth="6" markerHeight="6" orient="auto"><path d="M 0 0 L 10 5 L 0 10 z" fill="#e94560" /></marker><marker id="arrow-p" viewBox="0 0 10 10" refX="8" refY="5" markerWidth="6" markerHeight="6" orient="auto"><path d="M 0 0 L 10 5 L 0 10 z" fill="#533483" /></marker><rect x="70" y="85" width="860" height="65" rx="8" ry="8" fill="url(#bg-grad)" stroke="#e94560" stroke-width="1.5" filter="url(#shadow)" /><text x="500" y="105" text-anchor="middle" fill="#fff" font-size="11" font-weight="bold">📟 CLI (mesh-id)</text><rect x="82" y="120" width="38" height="22" rx="4" ry="4" fill="#e94560" opacity="0.9" /><text x="101" y="135" text-anchor="middle" fill="#fff" font-size="9">init</text><rect x="132" y="120" width="38" height="22" rx="4" ry="4" fill="#0f3460" opacity="0.9" /><text x="151" y="135" text-anchor="middle" fill="#fff" font-size="9">sync</text><rect x="182" y="120" width="38" height="22" rx="4" ry="4" fill="#533483" opacity="0.9" /><text x="201" y="135" text-anchor="middle" fill="#fff" font-size="9">scene</text><rect x="232" y="120" width="38" height="22" rx="4" ry="4" fill="#2d1b69" opacity="0.9" /><text x="251" y="135" text-anchor="middle" fill="#fff" font-size="9">status</text><rect x="282" y="120" width="38" height="22" rx="4" ry="4" fill="#e94560" opacity="0.9" /><text x="301" y="135" text-anchor="middle" fill="#fff" font-size="9">conflict</text><line x1="500" y1="150" x2="500" y2="175" stroke="#e94560" stroke-width="1.5" /><rect x="70" y="185" width="860" height="125" rx="8" ry="8" fill="transparent" stroke="#0f3460" stroke-width="1.5" filter="url(#shadow)" /><text x="500" y="205" text-anchor="middle" fill="#fff" font-size="11" font-weight="bold">⚙️ 核心层</text><text x="500" y="201" text-anchor="middle" fill="#0f3460" font-size="11" font-weight="bold">⚙️ 核心层</text><rect x="80" y="213" width="270" height="90" rx="8" ry="8" fill="#16213e" stroke="#0f3460" stroke-width="1.5" filter="url(#shadow)" /><text x="215" y="233" text-anchor="middle" fill="#fff" font-size="13" font-weight="bold">🔑 DID Manager</text><text x="215" y="251" text-anchor="middle" fill="#aaa" font-size="10">Ed25519 密钥对  |  soul_anchor</text><text x="215" y="267" text-anchor="middle" fill="#aaa" font-size="10">DID生成/验证  |  签名/验签</text><text x="215" y="283" text-anchor="middle" fill="#888" font-size="9">私钥加密存储 (方案一)</text><rect x="365" y="213" width="270" height="90" rx="8" ry="8" fill="#16213e" stroke="#0f3460" stroke-width="1.5" filter="url(#shadow)" /><text x="500" y="233" text-anchor="middle" fill="#fff" font-size="13" font-weight="bold">🔄 Memory Sync</text><text x="500" y="251" text-anchor="middle" fill="#aaa" font-size="10">双向同步  |  向量时钟</text><text x="500" y="267" text-anchor="middle" fill="#aaa" font-size="10">冲突检测  |  LWW策略</text><text x="500" y="283" text-anchor="middle" fill="#888" font-size="9">人工审核接口</text><rect x="650" y="213" width="270" height="90" rx="8" ry="8" fill="#16213e" stroke="#0f3460" stroke-width="1.5" filter="url(#shadow)" /><text x="785" y="233" text-anchor="middle" fill="#fff" font-size="13" font-weight="bold">🎯 Scene Adapter</text><text x="785" y="251" text-anchor="middle" fill="#aaa" font-size="10">工作 / 个人 / 开发</text><text x="785" y="267" text-anchor="middle" fill="#aaa" font-size="10">Polaris阈值自适应</text><text x="785" y="283" text-anchor="middle" fill="#888" font-size="9">自定义场景拓展</text><line x1="215" y1="310" x2="215" y2="345" stroke="#533483" stroke-width="1.5" /><use href="#arrow-p" x="210" y="338" /><line x1="500" y1="310" x2="500" y2="345" stroke="#533483" stroke-width="1.5" /><use href="#arrow-p" x="495" y="338" /><line x1="785" y1="310" x2="785" y2="345" stroke="#533483" stroke-width="1.5" /><use href="#arrow-p" x="780" y="338" /><rect x="70" y="355" width="860" height="80" rx="8" ry="8" fill="#0f3460" stroke="#533483" stroke-width="1.5" filter="url(#shadow)" /><text x="500" y="375" text-anchor="middle" fill="#fff" font-size="11" font-weight="bold">💾 存储抽象层 (NAS Storage)</text><text x="500" y="400" text-anchor="middle" fill="#aaa" font-size="10">SMB / NFS 抽象接口  ·  文件锁机制  ·  健康检查</text><line x1="500" y1="435" x2="500" y2="460" stroke="#e94560" stroke-width="1.5" /><rect x="70" y="470" width="860" height="130" rx="8" ry="8" fill="#2d1b69" stroke="#e94560" stroke-width="1.5" filter="url(#shadow)" /><text x="500" y="490" text-anchor="middle" fill="#fff" font-size="11" font-weight="bold">🌐 共享存储 (NAS)</text><rect x="140" y="505" width="160" height="45" rx="6" ry="6" fill="#e94560" opacity="0.8" /><text x="220" y="522" text-anchor="middle" fill="#fff" font-size="11" font-weight="bold">did/</text><text x="220" y="540" text-anchor="middle" fill="rgba(255,255,255,0.7)" font-size="9">DID凭证  公钥</text><rect x="330" y="505" width="160" height="45" rx="6" ry="6" fill="#0f3460" opacity="0.8" /><text x="410" y="522" text-anchor="middle" fill="#fff" font-size="11" font-weight="bold">memory_vault/</text><text x="410" y="540" text-anchor="middle" fill="rgba(255,255,255,0.7)" font-size="9">结构化记忆</text><rect x="520" y="505" width="160" height="45" rx="6" ry="6" fill="#533483" opacity="0.8" /><text x="600" y="522" text-anchor="middle" fill="#fff" font-size="11" font-weight="bold">scene_config/</text><text x="600" y="540" text-anchor="middle" fill="rgba(255,255,255,0.7)" font-size="9">场景配置</text><rect x="710" y="505" width="160" height="45" rx="6" ry="6" fill="#4a2c8a" opacity="0.8" /><text x="790" y="522" text-anchor="middle" fill="#fff" font-size="11" font-weight="bold">lock/</text><text x="790" y="540" text-anchor="middle" fill="rgba(255,255,255,0.7)" font-size="9">文件锁</text><rect x="70" y="620" width="860" height="55" rx="8" ry="8" fill="#1a1a2e" stroke="#e94560" stroke-width="1.5" filter="url(#shadow)" /><text x="500" y="640" text-anchor="middle" fill="#fff" font-size="11" font-weight="bold">🖥️ 多终端</text><line x1="250" y1="600" x2="250" y2="620" stroke="#e94560" stroke-width="1" stroke-dasharray="4,3" /><text x="250" y="662" text-anchor="middle" fill="#aaa" font-size="10">Windows Nyx</text><line x1="500" y1="600" x2="500" y2="620" stroke="#e94560" stroke-width="1" stroke-dasharray="4,3" /><text x="500" y="662" text-anchor="middle" fill="#aaa" font-size="10">Mac Nyx</text><line x1="750" y1="600" x2="750" y2="620" stroke="#e94560" stroke-width="1" stroke-dasharray="4,3" /><text x="750" y="662" text-anchor="middle" fill="#aaa" font-size="10">NAS Agent</text><text x="70" y="685" text-anchor="start" fill="#555" font-size="9">MeshIdentity v0.1.0  ·  公开日期: 2026-06-30</text><text x="930" y="685" text-anchor="end" fill="#555" font-size="9">MIT License  ·  github.com/deanhan2026-lang/mesh-identity</text></svg>